<svg xmlns="http://www.w3.org/2000/svg" width="83.575" height="83.575" viewBox="0 0 83.575 83.575">
  <g id="audit_2_" data-name="audit (2)" style="isolation: isolate">
    <g id="Group_5843" data-name="Group 5843" transform="translate(0 0)">
      <path id="Path_77764" data-name="Path 77764" d="M0,99.138v42.33A1.23,1.23,0,0,0,1.229,142.7h39.4a18.387,18.387,0,0,1,.807-10.269H30.874v-5.736h14.07a18.156,18.156,0,0,1,19.273-4.913V99.138Zm18.723,35.926a2.9,2.9,0,0,1-3.994-.361l-3.8-4.456,4.362-3.724,1.982,2.323,5.616-4.58,3.625,4.445Zm0-17.373a2.9,2.9,0,0,1-3.994-.361l-3.8-4.456,4.362-3.724,1.982,2.323,5.616-4.58,3.625,4.445Zm34.739-2.637H30.874v-5.736H53.462v5.736Z" transform="translate(0 -81.434)" fill="#2e023c"/>
      <path id="Path_77765" data-name="Path 77765" d="M64.216,11.968V1.229A1.23,1.23,0,0,0,62.987,0H1.229A1.23,1.23,0,0,0,0,1.229V11.968ZM17.675,3.252h5.352V8.988H17.675Zm-12.793,0h5.352V8.988H4.882Z" transform="translate(0 0)" fill="#2e023c"/>
    </g>
    <g id="Group_5844" data-name="Group 5844" transform="translate(45.954 45.462)">
      <path id="Path_77766" data-name="Path 77766" d="M385.682,387.335l7.367,9.186a5.8,5.8,0,0,0,3.091,2.121,3.484,3.484,0,0,0,3.181-.983,3.809,3.809,0,0,0,.694-4.273h0a6.993,6.993,0,0,0-1.8-2.35l-8.775-7.387A18.141,18.141,0,0,1,385.682,387.335Z" transform="translate(-362.761 -360.6)" fill="#2ed789"/>
      <path id="Path_77767" data-name="Path 77767" d="M269.567,254.579A12.237,12.237,0,1,0,281.8,266.815,12.236,12.236,0,0,0,269.567,254.579Zm.52,17.932a2.9,2.9,0,0,1-3.864.328l-5.834-4.506,3.506-4.539,3.752,2.9,6.876-7.476,4.222,3.883Z" transform="translate(-257.331 -254.579)" fill="#2ed789"/>
    </g>
  </g>
</svg>
