<svg xmlns="http://www.w3.org/2000/svg" width="45.197" height="45.976" viewBox="0 0 45.197 45.976">
  <g id="Group_24091" data-name="Group 24091" transform="translate(-1025.888 -8291.355)">
    <g id="Path_77757" data-name="Path 77757" transform="translate(1025.888 8291.355)" fill="#2ed789">
      <path d="M 22.5982837677002 44.97587966918945 C 19.68422317504883 44.97587966918945 16.85770416259766 44.39548110961914 14.19723415374756 43.25078964233398 C 11.62589359283447 42.14445114135742 9.316093444824219 40.56013107299805 7.332013607025146 38.54182815551758 C 5.346763610839844 36.5223503112793 3.788073778152466 34.17061996459961 2.699253797531128 31.55195045471191 C 1.571713805198669 28.84018898010254 1.000003814697266 25.95883941650391 1.000003814697266 22.98793983459473 C 1.000003814697266 20.01704025268555 1.571713805198669 17.13569068908691 2.699253797531128 14.42393016815186 C 3.788073778152466 11.80525970458984 5.346763610839844 9.453529357910156 7.332013607025146 7.434049606323242 C 9.316093444824219 5.415750026702881 11.62589359283447 3.831429719924927 14.19723415374756 2.72508978843689 C 16.85770416259766 1.580399870872498 19.68422317504883 0.9999998211860657 22.5982837677002 0.9999998211860657 C 25.51234436035156 0.9999998211860657 28.33886337280273 1.580399870872498 30.99933433532715 2.72508978843689 C 33.57068252563477 3.831429719924927 35.88048553466797 5.415750026702881 37.86456298828125 7.434049606323242 C 39.84981536865234 9.453529357910156 41.40849304199219 11.80525970458984 42.49732208251953 14.42393016815186 C 43.62486267089844 17.13569068908691 44.19657516479492 20.01704025268555 44.19657516479492 22.98793983459473 C 44.19657516479492 25.95883941650391 43.62486267089844 28.84018898010254 42.49732208251953 31.55195045471191 C 41.40849304199219 34.17061996459961 39.84981536865234 36.5223503112793 37.86456298828125 38.54182815551758 C 35.88048553466797 40.56013107299805 33.57068252563477 42.14445114135742 30.99933433532715 43.25078964233398 C 28.33886337280273 44.39548110961914 25.51234436035156 44.97587966918945 22.5982837677002 44.97587966918945 Z" stroke="none"/>
      <path d="M 22.5982837677002 2 C 19.82091331481934 2 17.12737464904785 2.553009033203125 14.59246444702148 3.643669128417969 C 12.14075469970703 4.698539733886719 9.937911987304688 6.209671020507812 8.045135498046875 8.135089874267578 C 6.150012969970703 10.06287002563477 4.662063598632812 12.30791854858398 3.622604370117188 14.8078498840332 C 2.545925140380859 17.39731979370117 1.999992370605469 20.14949989318848 1.999992370605469 22.98793983459473 C 1.999992370605469 25.82637977600098 2.545925140380859 28.57855987548828 3.622604370117188 31.16802978515625 C 4.662063598632812 33.66796112060547 6.150012969970703 35.91300964355469 8.045135498046875 37.84078979492188 C 9.937911987304688 39.76620864868164 12.14075469970703 41.27733993530273 14.59246444702148 42.33221054077148 C 17.12737464904785 43.42287063598633 19.82091331481934 43.97587966918945 22.5982837677002 43.97587966918945 C 25.37565422058105 43.97587966918945 28.06919288635254 43.42287063598633 30.60410308837891 42.33221054077148 C 33.05581283569336 41.27733993530273 35.25865173339844 39.76620864868164 37.15143585205078 37.84078979492188 C 39.04654312133789 35.91300964355469 40.53449249267578 33.66796112060547 41.57395553588867 31.16802978515625 C 42.65064239501953 28.57855987548828 43.19656372070312 25.82638931274414 43.19656372070312 22.98793983459473 C 43.19656372070312 20.14949035644531 42.65064239501953 17.39731979370117 41.57395553588867 14.8078498840332 C 40.53449249267578 12.30791854858398 39.04654312133789 10.06287002563477 37.15143585205078 8.135089874267578 C 35.25865173339844 6.209671020507812 33.05581283569336 4.698539733886719 30.60410308837891 3.643669128417969 C 28.06919288635254 2.553009033203125 25.37565422058105 2 22.5982837677002 2 M 22.5982837677002 0 C 35.07897186279297 0 45.19656372070312 10.29204940795898 45.19656372070312 22.98793983459473 C 45.19656372070312 35.68383026123047 35.07897186279297 45.97587966918945 22.5982837677002 45.97587966918945 C 10.11759567260742 45.97587966918945 -7.62939453125e-06 35.68383026123047 -7.62939453125e-06 22.98793983459473 C -7.62939453125e-06 10.29204940795898 10.11759567260742 0 22.5982837677002 0 Z" stroke="none" fill="#fff"/>
    </g>
    <path id="Icon_awesome-quote-right" data-name="Icon awesome-quote-right" d="M18.018,2.25h-4.97a1.864,1.864,0,0,0-1.864,1.864v4.97a1.864,1.864,0,0,0,1.864,1.864h3.106v2.485a2.487,2.487,0,0,1-2.485,2.485h-.311a.93.93,0,0,0-.932.932v1.864a.93.93,0,0,0,.932.932h.311a6.211,6.211,0,0,0,6.213-6.213V4.114A1.864,1.864,0,0,0,18.018,2.25Zm-11.183,0H1.864A1.864,1.864,0,0,0,0,4.114v4.97a1.864,1.864,0,0,0,1.864,1.864H4.97v2.485a2.487,2.487,0,0,1-2.485,2.485H2.175a.93.93,0,0,0-.932.932v1.864a.93.93,0,0,0,.932.932h.311A6.211,6.211,0,0,0,8.7,13.433V4.114A1.864,1.864,0,0,0,6.834,2.25Z" transform="translate(1038.573 8303.164)" fill="#fff"/>
  </g>
</svg>
