<svg xmlns="http://www.w3.org/2000/svg" width="30.915" height="30.914" viewBox="0 0 30.915 30.914">
  <g id="rocket" transform="translate(-45.328 13.177) rotate(-43)">
    <path id="Path_76742" data-name="Path 76742" d="M53.728,32.49a.247.247,0,0,0-.171-.181c-2.862-.7-9.472,1.793-13.052,5.373a15.5,15.5,0,0,0-1.739,2.056,6.508,6.508,0,0,0-3.151.4c-2.657,1.167-3.429,4.22-3.649,5.53a.47.47,0,0,0,.386.542.6.6,0,0,0,.132,0l4.264-.469c0,.322.024.645.059.962a.959.959,0,0,0,.278.586l1.651,1.646a.959.959,0,0,0,.586.278c.318.034.635.054.957.059l-.469,4.26a.469.469,0,0,0,.42.518.366.366,0,0,0,.127,0c1.309-.21,4.367-.982,5.53-3.639a6.535,6.535,0,0,0,.4-3.141,15.6,15.6,0,0,0,2.061-1.739c3.59-3.571,6.067-10.033,5.378-13.038Zm-5.652,8.773a2.344,2.344,0,1,1,0-3.317A2.339,2.339,0,0,1,48.076,41.263Z" fill="#fff"/>
    <path id="Path_76743" data-name="Path 76743" d="M53.881,339.056a2.259,2.259,0,0,1-1.216.464,1.71,1.71,0,0,1-1.978-1.978,3.283,3.283,0,0,1,.464-1.216.215.215,0,0,0,0-.3.21.21,0,0,0-.181-.063,2.926,2.926,0,0,0-1.715.835c-1.153,1.153-1.26,5.417-1.26,5.417s4.269-.108,5.417-1.26a2.911,2.911,0,0,0,.835-1.719A.219.219,0,0,0,53.881,339.056Z" transform="translate(-15.257 -288.927)" fill="#fff"/>
  </g>
</svg>
