<svg id="feature" xmlns="http://www.w3.org/2000/svg" width="70.917" height="68.434" viewBox="0 0 70.917 68.434">
  <path id="Path_7697" data-name="Path 7697" d="M214.861,229.227l-1.341-3.368-1.341,3.368a2.077,2.077,0,0,1-1.8,1.3l-3.617.233,2.788,2.317a2.078,2.078,0,0,1,.686,2.112l-.895,3.512,3.066-1.938a2.087,2.087,0,0,1,2.219,0l3.063,1.936-.895-3.51a2.078,2.078,0,0,1,.686-2.112l2.788-2.317-3.615-.233A2.077,2.077,0,0,1,214.861,229.227Z" transform="translate(-178.129 -195.819)" fill="#2dea8f"/>
  <path id="Path_7698" data-name="Path 7698" d="M68.973,33.16l-23.089-1.5L37.32,10.151a2.164,2.164,0,0,0-3.859,0L24.9,31.665,1.943,33.16A2.078,2.078,0,0,0,.75,36.832L18.412,51.624,12.694,74.061a2.078,2.078,0,0,0,3.122,2.27L35.391,63.96,54.963,76.331a2.078,2.078,0,0,0,3.122-2.27L52.368,51.624l17.8-14.792a2.078,2.078,0,0,0-1.193-3.672ZM48.811,43.777l-5.792,4.81,1.858,7.3a2.078,2.078,0,0,1-3.122,2.27L35.391,54.13l-6.366,4.023a2.078,2.078,0,0,1-3.122-2.27l1.858-7.3-5.792-4.81A2.078,2.078,0,0,1,23.161,40.1l7.515-.487,2.786-7a2.164,2.164,0,0,1,3.859,0l2.786,7,7.513.487a2.078,2.078,0,0,1,1.193,3.672Z" transform="translate(0 -8.967)" fill="#3b0944"/>
  <ellipse id="Ellipse_10" data-name="Ellipse 10" cx="2.078" cy="2.078" rx="2.078" ry="2.078" transform="translate(33.379 64.279)" fill="#2dea8f"/>
  <ellipse id="Ellipse_11" data-name="Ellipse 11" cx="2.078" cy="2.078" rx="2.078" ry="2.078" transform="translate(60.501 47.589) rotate(-72.002)" fill="#2dea8f"/>
  <ellipse id="Ellipse_12" data-name="Ellipse 12" cx="2.078" cy="2.078" rx="2.078" ry="2.078" transform="matrix(0.588, -0.809, 0.809, 0.588, 49.651, 14.201)" fill="#2dea8f"/>
  <ellipse id="Ellipse_13" data-name="Ellipse 13" cx="2.078" cy="2.078" rx="2.078" ry="2.078" transform="matrix(0.809, -0.588, 0.588, 0.809, 15.458, 13.28)" fill="#2dea8f"/>
  <ellipse id="Ellipse_14" data-name="Ellipse 14" cx="2.078" cy="2.078" rx="2.078" ry="2.078" transform="translate(5.176 44.927) rotate(-17.998)" fill="#2dea8f"/>
</svg>
