<svg xmlns="http://www.w3.org/2000/svg" width="187.883" height="29.831" viewBox="0 0 187.883 29.831">
  <g id="Group_24090" data-name="Group 24090" transform="translate(0)">
    <path id="Icon_feather-star" data-name="Icon feather-star" d="M18.684,3l4.846,9.818L34.368,14.4,26.526,22.04l1.851,10.79-9.693-5.1-9.693,5.1,1.851-10.79L3,14.4l10.837-1.584Z" transform="translate(-3 -3)" fill="#fcbd12"/>
    <path id="Icon_feather-star-2" data-name="Icon feather-star" d="M18.684,3l4.846,9.818L34.368,14.4,26.526,22.04l1.851,10.79-9.693-5.1-9.693,5.1,1.851-10.79L3,14.4l10.837-1.584Z" transform="translate(35.391 -3)" fill="#fcbd12"/>
    <path id="Icon_feather-star-3" data-name="Icon feather-star" d="M18.684,3l4.846,9.818L34.368,14.4,26.526,22.04l1.851,10.79-9.693-5.1-9.693,5.1,1.851-10.79L3,14.4l10.837-1.584Z" transform="translate(75.258 -3)" fill="#fcbd12"/>
    <path id="Icon_feather-star-4" data-name="Icon feather-star" d="M18.684,3l4.846,9.818L34.368,14.4,26.526,22.04l1.851,10.79-9.693-5.1-9.693,5.1,1.851-10.79L3,14.4l10.837-1.584Z" transform="translate(113.649 -3)" fill="#fcbd12"/>
    <path id="Icon_feather-star-5" data-name="Icon feather-star" d="M18.684,3l4.846,9.818L34.368,14.4,26.526,22.04l1.851,10.79-9.693-5.1-9.693,5.1,1.851-10.79L3,14.4l10.837-1.584Z" transform="translate(153.516 -3)" fill="#fcbd12"/>
  </g>
</svg>
