<svg id="Glyph" xmlns="http://www.w3.org/2000/svg" width="72.406" height="72.407" viewBox="0 0 72.406 72.407">
  <g id="Glyph-2" data-name="Glyph" transform="translate(0)">
    <rect id="Rectangle_616" data-name="Rectangle 616" width="28.757" height="30.007" transform="translate(21.035 19.949)" fill="#2dea8f"/>
    <path id="Path_7695" data-name="Path 7695" d="M67.638,26.082c-9.571.1-18.779-5.817-22.3-8.369a2.537,2.537,0,0,0-2.971,0c-3.521,2.552-12.752,8.443-22.3,8.369a2.571,2.571,0,0,0-2.6,2.563C17.476,41.737,20.1,60.465,42.7,71.907a2.534,2.534,0,0,0,2.3,0C67.61,60.465,70.229,41.737,70.235,28.645a2.582,2.582,0,0,0-2.6-2.563ZM53.208,51.971a4.252,4.252,0,0,1-4.252,4.253H38.749A4.253,4.253,0,0,1,34.5,51.971V42.9A4.253,4.253,0,0,1,37.048,39v-.879c.1-9.1,13.506-9.1,13.608,0V39a4.253,4.253,0,0,1,2.551,3.9Z" transform="translate(-7.65 -7.552)" fill="#3b0944"/>
    <path id="Path_7692" data-name="Path 7692" d="M74.333,48.032a.851.851,0,0,0-.629,1.021,35.107,35.107,0,0,1,.936,8.029,34.543,34.543,0,0,1-34.5,34.5A34.1,34.1,0,0,1,19.34,84.6a5.708,5.708,0,1,0-1.151,1.259,35.777,35.777,0,0,0,21.948,7.428A36.242,36.242,0,0,0,75.359,48.667a.851.851,0,0,0-1.026-.635Z" transform="translate(-3.935 -20.878)" fill="#3b0944"/>
    <path id="Path_7693" data-name="Path 7693" d="M1.851,36.363A34.5,34.5,0,0,1,54.423,6.97a5.084,5.084,0,1,0,.97-1.4A36.214,36.214,0,0,0,.751,42.952a.844.844,0,0,0,.833.7.7.7,0,0,0,.153-.017.85.85,0,0,0,.686-.987,34.526,34.526,0,0,1-.573-6.282Z" transform="translate(-0.15 -0.16)" fill="#3b0944"/>
    <path id="Path_7694" data-name="Path 7694" d="M55,50.151v.51H65.206v-.51C65.127,43.256,55.079,43.256,55,50.151Z" transform="translate(-23.9 -19.567)" fill="#0c2233"/>
    <path id="Path_7696" data-name="Path 7696" d="M63.721,66.255a.549.549,0,0,1,.113-.433,1.83,1.83,0,1,0-3.011,0,.543.543,0,0,1,.113.429c-.133.664-.51,2.562-.776,3.88a1.134,1.134,0,0,0,1.113,1.353h2.109A1.134,1.134,0,0,0,64.5,70.127Z" transform="translate(-26.125 -27.348)" fill="#0c2233"/>
  </g>
</svg>
