<svg xmlns="http://www.w3.org/2000/svg" xmlns:xlink="http://www.w3.org/1999/xlink" width="106.752" height="160.983" viewBox="0 0 106.752 160.983">
  <defs>
    <linearGradient id="linear-gradient" x1="-0.13" y1="0.406" x2="0.981" y2="0.349" gradientUnits="objectBoundingBox">
      <stop offset="0" stop-color="#ffdd54"/>
      <stop offset="1" stop-color="#ff9f25"/>
    </linearGradient>
    <linearGradient id="linear-gradient-2" x1="0.91" y1="0.113" x2="0.027" y2="1.008" xlink:href="#linear-gradient"/>
  </defs>
  <g id="Group_24063" data-name="Group 24063" transform="translate(-582.441 -368.054)">
    <path id="path118" d="M80.281,25.758l.291-3.63C77.979,30.227,75.235,38.253,70.1,42.9c-7.3,6.617-15.648.76-20.857-8.365-3.013-5.286-5.277-11.5-7.732-17.426-1.933-4.686-5.667-14.823-10.066-11.54-1.848,1.4-3.238,4.483-4.418,7.036-1.394,3-2.584,6.233-3.806,9.415-1.849,4.816-4.06,10.217-7.57,12.206-4.013,2.278-8.1-1.7-10.73-6.326A40.556,40.556,0,0,1,0,9.507l1.448-.3c.784,6.11,2.481,12.018,5.244,16.522,2.954,4.794,7.275,8.134,10.649,2.364,2.7-4.606,4.2-11.005,6.327-16.27,1.808-4.5,4.2-9.87,7.61-11.382C38.833-2.91,43.723,13.793,46.949,21.66c4.034,9.87,10.8,22.878,19.271,19.031,4.154-1.895,7.128-7.506,9.363-13.088,1.494-3.724,2.861-7.542,4.306-11.28l-2.225,2.155c-1.176.9-2.682-1.612-1.5-3.116,2.03-2.6,4.159-5,6.207-7.571,1.289-1.627,3.137-.159,2.777,2.567-.691,5.315-1.05,10.788-1.842,16.053-.4,2.639-3.119,2.133-3.023-.651Z" transform="matrix(-0.07, 0.998, -0.998, -0.07, 634.003, 444.053)" fill="url(#linear-gradient)"/>
    <g id="Group_23951" data-name="Group 23951" transform="translate(613.723 368.054)">
      <g id="business" transform="translate(2.466 17.095) rotate(-17)">
        <path id="Path_78067" data-name="Path 78067" d="M54.213,0C42.788-.19,29.78,5.778,21.547,15.035A30.907,30.907,0,0,0,.354,24.048a1.225,1.225,0,0,0,.682,2.071l9.4,1.34L9.269,28.773a1.184,1.184,0,0,0,.049,1.656L20.67,41.782a5.469,5.469,0,0,1,4.58-7.917l6.7-.39,2.485-6.723a5.467,5.467,0,0,1,10.28,0l.682,1.827C51.753,20.637,55.6,10.382,55.407,1.2A1.228,1.228,0,0,0,54.213,0ZM42.983,21.051a6.1,6.1,0,0,1-8.623-8.623,6.1,6.1,0,0,1,8.623,8.623Z" transform="translate(3.057 0)" fill="#2e023c"/>
        <path id="Path_78068" data-name="Path 78068" d="M6.636,2.2C4.029,4.807.451,16.583.051,17.915a1.219,1.219,0,0,0,1.167,1.569,1.248,1.248,0,0,0,.351-.051c1.332-.4,13.108-3.978,15.714-6.584A7.529,7.529,0,0,0,6.636,2.2Z" transform="translate(0 38.984)" fill="url(#linear-gradient-2)"/>
        <path id="Path_78069" data-name="Path 78069" d="M24.493,31.668a1.819,1.819,0,0,1-1.028-.317L15.836,26.16,8.206,31.351a1.827,1.827,0,0,1-2.8-1.959l2.375-9.378L.64,13.917A1.826,1.826,0,0,1,1.724,10.7l9.1-.514,3.3-8.989a1.827,1.827,0,0,1,3.432,0l3.3,8.989,9.1.514a1.826,1.826,0,0,1,1.084,3.213l-7.142,6.1,2.375,9.378a1.819,1.819,0,0,1-.723,1.944,1.794,1.794,0,0,1-1.045.334Z" transform="translate(26.794 26.8)" fill="#2ed789"/>
      </g>
      <g id="shines_1_" data-name="shines (1)" transform="translate(0 47.747)">
        <g id="Group_23884" data-name="Group 23884" transform="translate(5.348)">
          <g id="Group_23883" data-name="Group 23883">
            <path id="Path_20677" data-name="Path 20677" d="M17.3,5.431A6.35,6.35,0,0,1,12.39.52a.654.654,0,0,0-1.28,0A6.349,6.349,0,0,1,6.2,5.431a.654.654,0,0,0,0,1.28,6.35,6.35,0,0,1,4.911,4.911.654.654,0,0,0,1.28,0A6.349,6.349,0,0,1,17.3,6.711a.654.654,0,0,0,0-1.28Z" transform="translate(-5.679)" fill="#f6cb39"/>
          </g>
        </g>
        <g id="Group_23888" data-name="Group 23888" transform="translate(0 11.74)">
          <g id="Group_23887" data-name="Group 23887">
            <path id="Path_20679" data-name="Path 20679" d="M298.6,168a4.044,4.044,0,0,1-3.128-3.128.654.654,0,0,0-1.28,0A4.044,4.044,0,0,1,291.067,168a.654.654,0,0,0,0,1.28,4.044,4.044,0,0,1,3.128,3.128.654.654,0,0,0,1.28,0,4.044,4.044,0,0,1,3.128-3.128.654.654,0,0,0,0-1.28Z" transform="translate(-290.547 -164.351)" fill="#ffb454"/>
          </g>
        </g>
      </g>
      <g id="shines_1_2" data-name="shines (1)" transform="translate(29.589 68.944)">
        <g id="Group_23884-2" data-name="Group 23884" transform="translate(0)">
          <g id="Group_23883-2" data-name="Group 23883">
            <path id="Path_20677-2" data-name="Path 20677" d="M17.045,5.311a6.21,6.21,0,0,1-4.8-4.8.639.639,0,0,0-1.252,0,6.21,6.21,0,0,1-4.8,4.8.639.639,0,0,0,0,1.252,6.21,6.21,0,0,1,4.8,4.8.639.639,0,0,0,1.252,0,6.21,6.21,0,0,1,4.8-4.8.639.639,0,0,0,0-1.252Z" transform="translate(-5.679)" fill="#f6cb39"/>
          </g>
        </g>
      </g>
    </g>
  </g>
</svg>
