<svg xmlns="http://www.w3.org/2000/svg" width="83.684" height="83.684" viewBox="0 0 83.684 83.684">
  <g id="Group_5846" data-name="Group 5846" transform="translate(0 0)" style="isolation: isolate">
    <path id="development" d="M15.218,74.447,8.489,67.718l21.2-21.2-1.45-1.45,11-1.349-1.349,11-1.45-1.45-21.2,21.2ZM54.682,71.5l1.349-11-11,1.349,1.45,1.45-21.2,21.2,6.729,6.729,21.2-21.2,1.45,1.45Zm-13.02-9.68a1.182,1.182,0,0,1,.691-2.007l4.908-.607L56.4,50.06l1.45,1.45,1.349-11-11,1.349,1.45,1.45-9.141,9.141-.607,4.908a1.182,1.182,0,0,1-2.007.691l-1.484-1.5L8.489,84.515l6.729,6.729L43.147,63.316l-1.5-1.484Z" transform="translate(-8.489 -7.561)" fill="#2ed789"/>
    <path id="development-2" data-name="development" d="M79.592,32.352l3.187-8.635-6.746-6.746L67.4,20.158,58.46,16.465,54.6,8.1H45.052L41.19,16.465l-8.938,3.693-8.635-3.187-6.746,6.746,3.187,8.635L16.365,41.29,8,45.152V54.7l6.965,3.221L26.349,46.535l-1.5-1.484a1.182,1.182,0,0,1,.691-2.007l3.306-.4a22.217,22.217,0,1,1,28.3,28.3l-.4,3.306a1.182,1.182,0,0,1-2.007.691l-1.484-1.5L41.865,84.819l3.221,6.965h9.546l3.862-8.365,8.938-3.693,8.635,3.187,6.746-6.746-3.187-8.635,3.693-8.938,8.365-3.862V45.186l-8.365-3.862-3.693-8.938Z" transform="translate(-8 -8.1)" fill="#2e023c"/>
  </g>
</svg>
