<svg xmlns="http://www.w3.org/2000/svg" width="15.534" height="15.534" viewBox="0 0 15.534 15.534">
  <g id="Group_23888" data-name="Group 23888" transform="translate(0 0)">
    <g id="Group_23887" data-name="Group 23887">
      <path id="Path_20679" data-name="Path 20679" d="M305.139,170.959a7.325,7.325,0,0,1-5.666-5.666,1.185,1.185,0,0,0-2.319,0,7.325,7.325,0,0,1-5.666,5.666,1.185,1.185,0,0,0,0,2.319,7.325,7.325,0,0,1,5.666,5.666,1.185,1.185,0,0,0,2.319,0,7.325,7.325,0,0,1,5.666-5.666,1.185,1.185,0,0,0,0-2.319Z" transform="translate(-290.547 -164.351)" fill="#ffb454"/>
    </g>
  </g>
</svg>
