<svg id="Group_951" data-name="Group 951" xmlns="http://www.w3.org/2000/svg" width="70.108" height="69.61" viewBox="0 0 70.108 69.61">
  <path id="_24-hours" data-name="24-hours" d="M57.408,55.883l-9.356-5.4a3.825,3.825,0,0,0-5.213,1.4l-.369.64a6.32,6.32,0,0,1-9.265,1.895,81.13,81.13,0,0,1-8.656-7.535,81.063,81.063,0,0,1-7.534-8.654,6.316,6.316,0,0,1,1.894-9.264l.64-.369a3.828,3.828,0,0,0,1.4-5.213l-5.4-9.356a3.813,3.813,0,0,0-4.719-1.637l-.116.045c-1.835.7-6.894,2.552-8.253,3.911-4.02,4.02-2.3,11.293-.507,15.921,3.141,8.105,9.1,15.907,15.205,22.012S31.061,66.337,39.166,69.478a25.685,25.685,0,0,0,9.012,1.95,9.475,9.475,0,0,0,6.911-2.456c1.3-1.3,3.218-6.513,3.922-8.285A3.814,3.814,0,0,0,57.408,55.883Zm12.7-25.075a28.8,28.8,0,0,1-8.491,20.5,2.226,2.226,0,1,1-3.148-3.149,24.537,24.537,0,0,0-34.7-34.7,2.226,2.226,0,0,1-3.148-3.148,28.989,28.989,0,0,1,49.487,20.5Z" transform="translate(0 -1.817)" fill="#3b0944" fill-rule="evenodd"/>
  <path id="_24-hours-2" data-name="24-hours" d="M49.269,15.732a2.226,2.226,0,0,1,1.474,2.1V28.481h.415a2.226,2.226,0,0,1,0,4.452h-.415V35.4a2.226,2.226,0,0,1-4.451,0V32.933H37.918A2.225,2.225,0,0,1,36.2,29.294L46.8,16.413a2.228,2.228,0,0,1,2.471-.68ZM46.292,28.481H42.633l3.659-4.446ZM31.206,24.086c.409-1.5.169-2.614-.718-3.315a3.8,3.8,0,0,0-3.909-.327A2.168,2.168,0,0,0,25.5,22.793a2.225,2.225,0,1,1-4.43.427,6.542,6.542,0,0,1,3.383-6.686,8.213,8.213,0,0,1,8.8.748c2.314,1.83,3.134,4.739,2.25,7.978-.6,2.207-2.687,3.832-4.891,5.554-.941.734-1.941,1.514-2.848,2.359h6.468a2.226,2.226,0,0,1,0,4.451h-11a2.225,2.225,0,0,1-2-3.2c1.515-3.12,4.358-5.34,6.642-7.123,1.391-1.087,3.123-2.438,3.336-3.217Z" transform="translate(5.257 1.982)" fill="#2dea8f" fill-rule="evenodd"/>
</svg>
