<svg xmlns="http://www.w3.org/2000/svg" width="85" height="75.9" viewBox="0 0 85 75.9">
  <g id="Group_5845" data-name="Group 5845" transform="translate(-0.206)" style="isolation: isolate">
    <path id="dot-chart" d="M65.745,36.9a17.078,17.078,0,1,0-9.52-2.9,2.213,2.213,0,0,1,.863,2.693L51.34,49.8a2.263,2.263,0,0,1-2.471,1.239,13.518,13.518,0,0,0-2.166-.174,13.381,13.381,0,0,0-3.806.549,2.268,2.268,0,0,1-2.633-.95l-8.805-15.3a2.345,2.345,0,0,1,.009-2.2,8.8,8.8,0,1,0-16.05-.583,2.317,2.317,0,0,1,.051,1.729L8.6,51.288a2.5,2.5,0,0,1-1.776,1.4,6.387,6.387,0,1,0,7.323,3.422,2.47,2.47,0,0,1-.154-1.981l5.981-14.953a2.432,2.432,0,0,1,2.594-1.364,8.871,8.871,0,0,0,1.01.057q.379,0,.75-.032a2.377,2.377,0,0,1,2.3,1.079l9.013,15.66a2.229,2.229,0,0,1-.129,2.33,13.386,13.386,0,1,0,21.363-1.362,2.232,2.232,0,0,1-.41-2.333l6.606-15.063a2.186,2.186,0,0,1,2.1-1.26q.287.01.577.01Z" transform="translate(1.001 -1.733)" fill="#2e023c"/>
    <circle id="Ellipse_481" data-name="Ellipse 481" cx="18" cy="18" r="18" transform="translate(49.206)" fill="#2ed789"/>
    <circle id="Ellipse_482" data-name="Ellipse 482" cx="9" cy="9" r="9" transform="translate(0.206 48)" fill="#2ed789"/>
  </g>
</svg>
