<svg xmlns="http://www.w3.org/2000/svg" xmlns:xlink="http://www.w3.org/1999/xlink" width="158.965" height="21.615" viewBox="0 0 158.965 21.615">
  <defs>
    <clipPath id="clip-path">
      <rect id="Rectangle_17305" data-name="Rectangle 17305" width="158.5" height="16.093" fill="#2e023c"/>
    </clipPath>
  </defs>
  <g id="Group_24088" data-name="Group 24088" transform="matrix(0.999, 0.035, -0.035, 0.999, 0.562, 0)">
    <g id="Group_23994" data-name="Group 23994" transform="translate(0 0)" clip-path="url(#clip-path)">
      <path id="Path_78079" data-name="Path 78079" d="M142.369,7.009c-4.063-.019-7.073.033-7.785.054-11.483.345-38.064-1.7-67.716,1.4C54.581,9.744,42.886,11.794,39,12.481,32.126,13.7,26.3,14.9,21.856,15.869a.775.775,0,0,0,.367.224c7.784-.846,19.492-2.111,33.817-3.633,8.645-.919,17.063-1.805,18.949-2,12.33-1.276,33.82-2.827,71.844-3.315-1.487-.029-2.984-.129-4.464-.136" transform="translate(9.627 -2.877)" fill="#2ed789"/>
      <path id="Path_78080" data-name="Path 78080" d="M89.482,3.46A668.489,668.489,0,0,1,158.5,3.415,494,494,0,0,0,84.65.265C65.984.89,53.081,2.43,47.827,3.106,21.321,6.514-.261,12.309,0,13.064c.229.656,16.782-2.791,46.569-6.045C68.788,4.591,85.6,3.666,89.482,3.46" transform="translate(0 0)" fill="#2e023c"/>
    </g>
  </g>
</svg>
