<svg xmlns="http://www.w3.org/2000/svg" width="89.982" height="89.815" viewBox="0 0 89.982 89.815">
  <g id="Group_5847" data-name="Group 5847" style="isolation: isolate">
    <path id="competitor-analysis" d="M86.358,75.7a5.071,5.071,0,1,1-5.071-5.071A5.071,5.071,0,0,1,86.358,75.7Zm10.909,5.5A15.979,15.979,0,1,1,81.283,65.224,16,16,0,0,1,97.267,81.2Zm-2.536,0a13.443,13.443,0,1,0-23.8,8.562,10.648,10.648,0,0,1,20.713,0A13.379,13.379,0,0,0,94.731,81.2ZM7.5,23.346A15.979,15.979,0,1,1,23.474,39.326,16,16,0,0,1,7.5,23.346Zm2.536,0a13.383,13.383,0,0,0,3.087,8.562,10.648,10.648,0,0,1,20.713,0,13.441,13.441,0,1,0-23.8-8.561Zm13.443-.43a5.071,5.071,0,1,0-5.071-5.071A5.071,5.071,0,0,0,23.478,22.917Zm10.5,54.959L20.222,91.63A5.1,5.1,0,0,1,13,84.412L26.758,70.657a2.468,2.468,0,0,1,3.367-.109l.6-.6A4.025,4.025,0,0,0,31.34,65a23.723,23.723,0,1,1,8.3,8.3,4.025,4.025,0,0,0-4.955.62l-.6.6a2.468,2.468,0,0,1-.109,3.367Zm-.2-24.992A17.977,17.977,0,1,0,51.75,34.907,17.977,17.977,0,0,0,33.774,52.883Zm11.789-1.511H40.639V61.981h4.924Zm17.3-4.877H57.939V61.981h4.924Zm-8.65-5.419H49.289v20.9h4.924ZM90.1,61.047a1.234,1.234,0,0,0,.218.02,1.271,1.271,0,0,0,1.246-1.043,40.951,40.951,0,0,0,0-14.285,1.266,1.266,0,0,0-2.493.444,38.154,38.154,0,0,1,0,13.4A1.268,1.268,0,0,0,90.1,61.047ZM58.607,90.177A38.007,38.007,0,0,1,32.56,85.585a1.264,1.264,0,1,0-1.281,2.179,40.369,40.369,0,0,0,20.467,5.561,40.921,40.921,0,0,0,7.322-.66,1.265,1.265,0,0,0-.462-2.488Zm-40.647-16.2A1.244,1.244,0,0,0,18.6,73.8a1.27,1.27,0,0,0,.453-1.73,37.8,37.8,0,0,1-5.213-19.191,38.659,38.659,0,0,1,.645-7.032A1.264,1.264,0,1,0,12,45.384,40.645,40.645,0,0,0,16.87,73.355a1.259,1.259,0,0,0,1.09.623Zm26.866-58.4a1.335,1.335,0,0,0,.227-.019,38.49,38.49,0,0,1,13.4,0,1.265,1.265,0,0,0,.444-2.49,41.047,41.047,0,0,0-14.287,0,1.264,1.264,0,0,0,.218,2.509Zm20.483,7.77A15.979,15.979,0,1,1,81.283,39.326,16,16,0,0,1,65.308,23.346Zm2.536,0a13.383,13.383,0,0,0,3.087,8.562,10.648,10.648,0,0,1,20.713,0,13.441,13.441,0,1,0-23.8-8.561Zm13.443-.43a5.071,5.071,0,1,0-5.071-5.071A5.071,5.071,0,0,0,81.287,22.917Z" transform="translate(-7.499 -7.367)" fill="#2e023c" fill-rule="evenodd"/>
    <path id="competitor-analysis-2" data-name="competitor-analysis" d="M86.358,75.7a5.071,5.071,0,1,1-5.071-5.071A5.071,5.071,0,0,1,86.358,75.7Zm10.909,5.5A15.979,15.979,0,1,1,81.283,65.224,16,16,0,0,1,97.267,81.2Zm-2.536,0a13.443,13.443,0,1,0-23.8,8.562,10.648,10.648,0,0,1,20.713,0A13.379,13.379,0,0,0,94.731,81.2ZM7.5,23.346A15.979,15.979,0,1,1,23.474,39.326,16,16,0,0,1,7.5,23.346Zm2.536,0a13.383,13.383,0,0,0,3.087,8.562,10.648,10.648,0,0,1,20.713,0,13.441,13.441,0,1,0-23.8-8.561Zm13.443-.43a5.071,5.071,0,1,0-5.071-5.071A5.071,5.071,0,0,0,23.478,22.917Zm41.83.43A15.979,15.979,0,1,1,81.283,39.326,16,16,0,0,1,65.308,23.346Zm2.536,0a13.383,13.383,0,0,0,3.087,8.562,10.648,10.648,0,0,1,20.713,0,13.441,13.441,0,1,0-23.8-8.561Zm13.443-.43a5.071,5.071,0,1,0-5.071-5.071A5.071,5.071,0,0,0,81.287,22.917Z" transform="translate(-7.285 -7.367)" fill="#2ed789" fill-rule="evenodd"/>
  </g>
</svg>
