<svg xmlns="http://www.w3.org/2000/svg" xmlns:xlink="http://www.w3.org/1999/xlink" width="261.381" height="70.703" viewBox="0 0 261.381 70.703">
  <defs>
    <clipPath id="clip-path">
      <rect id="Rectangle_389" data-name="Rectangle 389" width="261.381" height="70.703" fill="#fff"/>
    </clipPath>
  </defs>
  <g id="Group_5" data-name="Group 5" transform="translate(-658 382.472)">
    <g id="Group_640" data-name="Group 640" transform="translate(658 -382.472)" clip-path="url(#clip-path)">
      <path id="Path_3386" data-name="Path 3386" d="M27.727,28.35q0,8.253-4.7,12.64T9.463,45.379H0V11.961H10.492q8.183,0,12.709,4.32T27.727,28.35m-7.36.183q0-10.765-9.509-10.766H7.086V39.528h3.041q10.239,0,10.24-11" transform="translate(0 -5.335)" fill="#2e023c"/>
      <path id="Path_3387" data-name="Path 3387" d="M76.706,45.379,68.66,19.161h-.206q.434,8,.434,10.675V45.379H62.557V11.961H72.2l7.909,25.555h.137l8.389-25.555h9.646V45.379H91.678V29.562q0-1.119.034-2.583t.309-7.772h-.206L83.2,45.379Z" transform="translate(-27.904 -5.335)" fill="#2e023c"/>
      <path id="Path_3388" data-name="Path 3388" d="M177.187,16.992A7.22,7.22,0,0,0,170.993,20Q168.8,23,168.8,28.375q0,11.178,8.389,11.178a26.531,26.531,0,0,0,8.527-1.76v5.943a23.69,23.69,0,0,1-9.19,1.714q-7.291,0-11.154-4.423t-3.863-12.7a20.731,20.731,0,0,1,1.9-9.131,13.713,13.713,0,0,1,5.451-6.012,16.128,16.128,0,0,1,8.332-2.091,22.5,22.5,0,0,1,9.784,2.354l-2.286,5.76a38.136,38.136,0,0,0-3.771-1.554,11.266,11.266,0,0,0-3.726-.663" transform="translate(-72.041 -4.949)" fill="#2e023c"/>
      <path id="Path_3389" data-name="Path 3389" d="M278.5,51.781q-11.931,0-11.932-13.1,0-6.514,3.246-9.954t9.3-3.441a17.739,17.739,0,0,1,7.955,1.738l-2.057,5.394q-1.646-.663-3.063-1.086a9.891,9.891,0,0,0-2.835-.423q-5.44,0-5.44,7.726,0,7.5,5.44,7.5a12.417,12.417,0,0,0,3.726-.537,13.457,13.457,0,0,0,3.428-1.68v5.965a11.25,11.25,0,0,1-3.417,1.486,19.233,19.233,0,0,1-4.355.411" transform="translate(-118.902 -11.28)" fill="#2e023c"/>
      <path id="Path_3390" data-name="Path 3390" d="M319.52,29.752l3.04-3.886,7.155-7.771h7.863L327.429,29.18,338.2,43.649h-8.046l-7.36-10.355-2.995,2.4v7.955h-6.971V8.082h6.971V23.946l-.366,5.805Z" transform="translate(-139.536 -3.605)" fill="#2e023c"/>
      <path id="Path_3391" data-name="Path 3391" d="M379.264,51.782a8.475,8.475,0,0,1-7.063-3.269h-.366q.366,3.2.366,3.7V62.571h-6.971V25.77H370.9l.983,3.315h.32a8.066,8.066,0,0,1,7.246-3.795,8.293,8.293,0,0,1,7.086,3.5q2.559,3.5,2.56,9.715a19.182,19.182,0,0,1-1.2,7.109,9.971,9.971,0,0,1-3.417,4.595,8.759,8.759,0,0,1-5.211,1.577m-2.057-20.915a4.4,4.4,0,0,0-3.772,1.589q-1.188,1.589-1.234,5.246v.754q0,4.114,1.223,5.9a4.364,4.364,0,0,0,3.874,1.783q4.686,0,4.686-7.726a11.03,11.03,0,0,0-1.154-5.657,3.94,3.94,0,0,0-3.623-1.886" transform="translate(-162.912 -11.281)" fill="#2e023c"/>
      <path id="Path_3392" data-name="Path 3392" d="M418.17,11.488q0-3.406,3.8-3.406t3.794,3.406a3.319,3.319,0,0,1-.949,2.525,3.984,3.984,0,0,1-2.845.9q-3.8,0-3.8-3.428m7.269,32.161h-6.971V18.094h6.971Z" transform="translate(-186.527 -3.605)" fill="#2e023c"/>
      <path id="Path_3393" data-name="Path 3393" d="M453.184,42.233a15.09,15.09,0,0,0,4.388-.8v5.189a15.647,15.647,0,0,1-6.4,1.166q-4.183,0-6.092-2.114t-1.908-6.343V27.01h-3.337V24.061l3.84-2.332,2.011-5.394h4.458v5.44H457.3V27.01h-7.154V39.33a2.719,2.719,0,0,0,.834,2.194,3.29,3.29,0,0,0,2.206.708" transform="translate(-196.19 -7.286)" fill="#2e023c"/>
      <path id="Path_3394" data-name="Path 3394" d="M249.2,16.4q-2.3,2.871-4.184,5.423a11.818,11.818,0,0,0-1.336-.518,47.51,47.51,0,0,1,5.52-4.9" transform="translate(-108.693 -7.317)" fill="#fff"/>
      <path id="Path_3395" data-name="Path 3395" d="M236.71,30.358a10.768,10.768,0,0,0-4.352-4.626c-.3-.17-.6-.325-.911-.464a11.775,11.775,0,0,0-1.336-.518,14.091,14.091,0,0,0-4.291-.629q-5.962,0-9.254,3.5c-3.365,3.577-3.331,8.156-3.293,9.806a14.679,14.679,0,0,0,.894,4.84,27.826,27.826,0,0,0,2.916,5.379,17.887,17.887,0,0,1-.511-3.564,14.821,14.821,0,0,1,2.027-8.863,13.1,13.1,0,0,1,7.056-5.433,17.238,17.238,0,0,0-5.83,6.693,19.745,19.745,0,0,0-1.22,12.023s.017.066.034.168v0q.031.114.059.233c.146.093.292.186.444.273a12.919,12.919,0,0,0,6.54,1.623q5.914,0,9.231-3.546t3.315-9.831a15.528,15.528,0,0,0-1.52-7.068m-6.368,11.788a3.652,3.652,0,0,1-.515,1.2c-.053.08-.11.157-.169.233-.147.206-.328.39-.491.579a2.024,2.024,0,0,1-.7.517q-.119.057-.238.11c-.027.012-.053.027-.08.038s-.054.019-.08.029a3.045,3.045,0,0,1-.566.176,2.764,2.764,0,0,1-.431.048l-.111.012a2.774,2.774,0,0,1-1.054-.091c-2.17-.275-3.375-3.2-1.862-7.292a40.064,40.064,0,0,1,3.982-7.5,3.872,3.872,0,0,1,1.779,1.492,10.62,10.62,0,0,1,1.244,5.732,13.281,13.281,0,0,1-.7,4.72" transform="translate(-95.128 -10.759)" fill="#2e023c"/>
      <path id="Path_3396" data-name="Path 3396" d="M252.818,15.729,264.406,0l-12.7,4.678q5.087,4.16,1.111,11.051" transform="translate(-112.275 0)" fill="#2fc984" fill-rule="evenodd"/>
      <text id="FUEL_YOUR_DIGITAL_MARKETING_GROWTH_" data-name="FUEL YOUR DIGITAL MARKETING GROWTH!" transform="translate(28.701 66.387)" fill="#fff" font-size="7" font-family="Poppins-Bold, Poppins" font-weight="700"><tspan x="0" y="0" letter-spacing="0.2em">FUEL Y</tspan><tspan y="0" letter-spacing="0.199em">O</tspan><tspan y="0" letter-spacing="0.2em">UR DIGI</tspan><tspan y="0" letter-spacing="0.199em">TA</tspan><tspan y="0" letter-spacing="0.2em">L</tspan><tspan y="0" letter-spacing="0.199em"> </tspan><tspan y="0" letter-spacing="0.2em">M</tspan><tspan y="0" letter-spacing="0.199em">A</tspan><tspan y="0" letter-spacing="0.2em">RKETING GR</tspan><tspan y="0" letter-spacing="0.199em">O</tspan><tspan y="0" letter-spacing="0.2em">WTH</tspan><tspan y="0">!</tspan></text>
      <path id="Path_3397" data-name="Path 3397" d="M430.557,116.485H453a.3.3,0,0,0,0-.6H430.557a.3.3,0,1,0,0,.6" transform="translate(-191.918 -51.691)" fill="#fff"/>
      <path id="Path_3398" data-name="Path 3398" d="M.3,116.485H22.743a.3.3,0,0,0,0-.6H.3a.3.3,0,1,0,0,.6" transform="translate(0 -51.691)" fill="#fff"/>
    </g>
  </g>
</svg>
