<svg id="ranking" xmlns="http://www.w3.org/2000/svg" width="80.825" height="83.684" viewBox="0 0 80.825 83.684">
  <path id="Path_77768" data-name="Path 77768" d="M20.873,14H10.082A8.106,8.106,0,0,0,2,22.082V42.289A4.053,4.053,0,0,0,6.041,46.33H20.873a4.053,4.053,0,0,0,4.041-4.041V18.041A4.053,4.053,0,0,0,20.873,14Z" transform="translate(-2 37.354)" fill="#2e023c"/>
  <path id="Path_77769" data-name="Path 77769" d="M27.533,10H16.742A8.106,8.106,0,0,0,8.66,18.083V54.454A4.053,4.053,0,0,0,12.7,58.495H31.574a4.053,4.053,0,0,0,4.041-4.041V18.083A8.08,8.08,0,0,0,27.533,10Z" transform="translate(18.255 25.189)" fill="#2e023c"/>
  <path id="Path_77770" data-name="Path 77770" d="M31.161,17H20.371a4.053,4.053,0,0,0-4.041,4.041V33.165a4.053,4.053,0,0,0,4.041,4.041H35.2a4.053,4.053,0,0,0,4.041-4.041V25.082A8.106,8.106,0,0,0,31.161,17Z" transform="translate(41.581 46.478)" fill="#2e023c"/>
  <path id="Path_77771" data-name="Path 77771" d="M34.427,15.669a4.08,4.08,0,0,0,1.334-4.041,3.985,3.985,0,0,0-3.435-2.506l-3.88-.647a1.09,1.09,0,0,1-.606-.445L25.7,3.748C24.081.474,20.4.474,18.787,3.748L16.645,8.031a.892.892,0,0,1-.566.445l-3.88.647a4.038,4.038,0,0,0-3.435,2.506A4.08,4.08,0,0,0,10.1,15.669L13.089,18.7a1.093,1.093,0,0,1,.242.768l-.849,3.718c-.647,2.788.4,4.041,1.091,4.526s2.182,1.132,4.647-.323l3.637-2.142a1.036,1.036,0,0,1,.849,0l3.6,2.142a5.349,5.349,0,0,0,2.788.889,3.217,3.217,0,0,0,1.819-.566c.687-.485,1.738-1.738,1.091-4.526l-.849-3.718A1.036,1.036,0,0,1,31.4,18.7Z" transform="translate(18.15 -1.292)" fill="#2ed789"/>
</svg>
