<svg id="shines_1_" data-name="shines (1)" xmlns="http://www.w3.org/2000/svg" width="36.041" height="27.365" viewBox="0 0 36.041 27.365">
  <g id="Group_23884" data-name="Group 23884" transform="translate(0)">
    <g id="Group_23883" data-name="Group 23883">
      <path id="Path_20677" data-name="Path 20677" d="M26.733,9.839a11.5,11.5,0,0,1-8.9-8.9,1.185,1.185,0,0,0-2.319,0,11.5,11.5,0,0,1-8.9,8.9,1.185,1.185,0,0,0,0,2.319,11.5,11.5,0,0,1,8.9,8.9,1.185,1.185,0,0,0,2.319,0,11.5,11.5,0,0,1,8.9-8.9,1.185,1.185,0,0,0,0-2.319Z" transform="translate(-5.679)" fill="#f6cb39"/>
    </g>
  </g>
  <g id="Group_23888" data-name="Group 23888" transform="translate(20.508 11.832)">
    <g id="Group_23887" data-name="Group 23887">
      <path id="Path_20679" data-name="Path 20679" d="M305.139,170.959a7.325,7.325,0,0,1-5.666-5.666,1.185,1.185,0,0,0-2.319,0,7.325,7.325,0,0,1-5.666,5.666,1.185,1.185,0,0,0,0,2.319,7.325,7.325,0,0,1,5.666,5.666,1.185,1.185,0,0,0,2.319,0,7.325,7.325,0,0,1,5.666-5.666,1.185,1.185,0,0,0,0-2.319Z" transform="translate(-290.547 -164.351)" fill="#ffb454"/>
    </g>
  </g>
</svg>
